<svg width="0" height="0" fill="none">
    <symbol viewBox="0 0 124 124" fill="none" xmlns="http://www.w3.org/2000/svg" id="book">
        <path d="M110.222 24.1111H13.7778C10.1237 24.1111 6.61925 25.5627 4.03542 28.1465C1.45158 30.7304 0 34.2348 0 37.8889L0 89.5556C0 93.2097 1.45158 96.7141 4.03542 99.298C6.61925 101.882 10.1237 103.333 13.7778 103.333H53.0996C54.8907 105.386 58.187 106.778 62 106.778C65.813 106.778 69.1128 105.386 70.9004 103.333H110.222C113.876 103.333 117.381 101.882 119.965 99.298C122.548 96.7141 124 93.2097 124 89.5556V37.8889C124 34.2348 122.548 30.7304 119.965 28.1465C117.381 25.5627 113.876 24.1111 110.222 24.1111Z" fill="#226699"/>
        <path d="M68.8889 92.9999C68.8889 94.827 68.1631 96.5792 66.8712 97.8711C65.5793 99.163 63.8271 99.8888 62 99.8888C60.173 99.8888 58.4208 99.163 57.1289 97.8711C55.8369 96.5792 55.1111 94.827 55.1111 92.9999V31C55.1111 29.1729 55.8369 27.4207 57.1289 26.1288C58.4208 24.8369 60.173 24.1111 62 24.1111C63.8271 24.1111 65.5793 24.8369 66.8712 26.1288C68.1631 27.4207 68.8889 29.1729 68.8889 31V92.9999Z" fill="#292F33"/>
        <path d="M62 89.5555C62 91.3826 61.2742 93.1348 59.9823 94.4267C58.6904 95.7186 56.9382 96.4444 55.1111 96.4444H13.7778C11.9507 96.4444 10.1985 95.7186 8.90659 94.4267C7.61468 93.1348 6.88889 91.3826 6.88889 89.5555V27.5556C6.88889 25.7285 7.61468 23.9763 8.90659 22.6844C10.1985 21.3925 11.9507 20.6667 13.7778 20.6667H55.1111C56.9382 20.6667 58.6904 21.3925 59.9823 22.6844C61.2742 23.9763 62 25.7285 62 27.5556V89.5555Z" fill="#99AAB5"/>
        <path d="M62 89.5555C58.559 82.6735 49.4037 82.6666 48.2222 82.6666C41.3333 82.6666 31 89.5555 20.6667 89.5555C17.2222 89.5555 13.7778 86.4693 13.7778 82.6666V27.5556C13.7778 23.7529 17.2222 20.6667 20.6667 20.6667C31.8783 20.6667 41.3333 13.7778 48.2222 13.7778C58.5555 13.7778 62 20.3084 62 24.1111V89.5555Z" fill="#E1E8ED"/>
        <path d="M117.111 89.5555C117.111 91.3826 116.385 93.1348 115.093 94.4267C113.802 95.7186 112.049 96.4444 110.222 96.4444H68.8889C67.0618 96.4444 65.3096 95.7186 64.0177 94.4267C62.7258 93.1348 62 91.3826 62 89.5555V27.5556C62 25.7285 62.7258 23.9763 64.0177 22.6844C65.3096 21.3925 67.0618 20.6667 68.8889 20.6667H110.222C112.049 20.6667 113.802 21.3925 115.093 22.6844C116.385 23.9763 117.111 25.7285 117.111 27.5556V89.5555Z" fill="#99AAB5"/>
        <path d="M62 89.5555C65.441 82.6735 74.5963 82.6666 75.7778 82.6666C82.6667 82.6666 93 89.5555 103.333 89.5555C106.778 89.5555 110.222 86.4693 110.222 82.6666V27.5556C110.222 23.7529 106.778 20.6667 103.333 20.6667C92.1182 20.6667 82.6667 13.7778 75.7778 13.7778C65.4444 13.7778 62 20.3084 62 24.1111V89.5555Z" fill="#CCD6DD"/>
    </symbol>
</svg>